<?xml version="1.0" standalone="no"?>
<!DOCTYPE svg PUBLIC "-//W3C//DTD SVG 20010904//EN"
 "http://www.w3.org/TR/2001/REC-SVG-20010904/DTD/svg10.dtd">
<svg version="1.0" xmlns="http://www.w3.org/2000/svg"
 width="1930.000000pt" height="1931.000000pt" viewBox="0 0 1930.000000 1931.000000"
 preserveAspectRatio="xMidYMid meet">

<g transform="translate(0.000000,1931.000000) scale(0.100000,-0.100000)"
fill="#000000" stroke="none">
<path d="M9195 19294 c-27 -2 -124 -9 -215 -14 -1018 -66 -2069 -313 -3030
-712 -2816 -1168 -4935 -3630 -5665 -6580 -636 -2569 -196 -5281 1216 -7503
722 -1135 1672 -2107 2799 -2860 1345 -900 2919 -1451 4530 -1585 382 -31 991
-41 1345 -20 965 57 1854 236 2733 552 1151 413 2161 1010 3121 1845 195 170
692 668 872 874 767 879 1358 1860 1764 2924 862 2262 842 4776 -56 7021 -726
1815 -1990 3369 -3624 4456 -1376 916 -2897 1441 -4590 1584 -177 15 -1060 28
-1200 18z m2283 -1478 c460 -62 845 -181 1281 -396 580 -286 1096 -657 1960
-1410 123 -107 319 -278 435 -379 116 -101 319 -274 451 -384 322 -269 365
-307 542 -470 271 -250 459 -470 658 -772 421 -638 609 -1088 592 -1419 -6
-120 -27 -189 -82 -271 -41 -60 -103 -111 -326 -270 -118 -84 -257 -225 -297
-302 -39 -75 -74 -224 -97 -413 -9 -74 -28 -184 -42 -245 -16 -69 -27 -153
-30 -225 -4 -100 -2 -124 17 -180 41 -124 189 -407 375 -715 214 -355 245
-413 284 -533 115 -345 72 -831 -104 -1199 -66 -138 -119 -222 -216 -338 -191
-228 -411 -436 -954 -900 -371 -317 -471 -405 -655 -576 -235 -218 -430 -377
-587 -475 -102 -64 -178 -94 -238 -94 -39 0 -45 3 -45 20 0 42 55 132 330 546
103 154 222 343 265 420 43 76 129 216 191 309 206 309 372 498 634 718 302
254 434 408 521 609 55 125 105 313 114 423 8 101 -7 259 -30 325 -24 67 -162
269 -400 585 -120 160 -263 358 -318 440 -103 157 -217 377 -262 505 -34 99
-75 180 -98 194 -15 9 -22 6 -42 -18 -82 -102 -272 -467 -364 -699 -151 -381
-227 -679 -366 -1432 -136 -734 -179 -905 -380 -1517 -351 -1063 -573 -1855
-1029 -3653 -214 -847 -257 -988 -391 -1285 -66 -149 -231 -453 -317 -587 -36
-56 -91 -103 -120 -103 -22 0 2 199 71 600 224 1281 392 2549 516 3880 50 535
81 819 195 1795 108 921 158 1379 190 1745 28 331 37 399 60 465 31 91 88 188
204 349 58 82 131 196 161 255 30 58 97 174 150 256 113 178 187 318 210 399
14 47 16 79 11 146 -19 247 -118 449 -254 519 -22 11 -96 32 -164 47 -68 14
-276 61 -463 105 -460 109 -618 142 -830 177 -296 50 -385 57 -720 56 -446 -1
-750 -31 -1570 -151 -618 -92 -687 -91 -1097 12 -239 61 -395 118 -422 156
-21 30 -21 117 -1 146 18 26 281 196 380 246 81 41 125 54 335 101 420 93 919
165 1455 210 435 37 557 41 1165 41 676 0 643 1 1615 -80 1180 -99 1600 -112
2115 -69 147 13 203 13 360 2 102 -7 243 -13 313 -13 127 0 129 0 152 27 37
43 68 136 69 203 0 55 -11 86 -133 375 -73 173 -143 334 -156 356 -43 79 -345
401 -880 938 -180 182 -569 529 -844 754 -983 807 -2065 1315 -3076 1446 -560
73 -1176 20 -1632 -138 -221 -77 -383 -160 -560 -287 -122 -88 -194 -125 -280
-145 -224 -52 -418 102 -431 341 -8 149 35 267 137 377 64 71 176 147 259 178
214 80 933 251 1297 309 110 17 227 31 470 55 99 10 655 -3 763 -18z m-4613
-1135 c241 -64 383 -197 442 -412 26 -96 23 -321 -6 -459 -31 -142 -77 -284
-113 -348 -58 -102 -150 -214 -319 -388 -123 -127 -177 -190 -195 -227 -40
-87 -29 -117 41 -117 22 0 65 7 95 15 30 8 177 27 325 40 868 81 1364 171
1857 335 327 109 578 226 892 417 510 310 696 409 910 482 172 59 289 81 439
81 143 0 233 -16 342 -60 41 -16 109 -44 151 -61 42 -16 205 -63 362 -104 415
-106 501 -139 710 -273 175 -112 254 -158 487 -283 197 -106 237 -123 361
-158 766 -218 1861 -743 2041 -980 56 -73 53 -75 -104 -68 -302 12 -719 89
-1388 256 -697 175 -1039 266 -1565 421 -372 109 -483 129 -761 137 -275 8
-492 -17 -760 -86 -512 -133 -1099 -440 -1667 -872 -346 -263 -534 -386 -767
-502 -407 -202 -860 -327 -1380 -381 -147 -15 -150 -16 -182 -48 -31 -31 -81
-149 -194 -450 -50 -134 -71 -265 -67 -413 3 -115 6 -136 29 -186 29 -60 41
-72 224 -208 158 -117 304 -249 422 -380 457 -509 749 -1159 862 -1921 47
-316 50 -416 41 -1380 -3 -406 4 -549 70 -1310 61 -707 64 -766 64 -1070 1
-394 -19 -522 -188 -1198 -52 -207 -109 -444 -125 -526 -17 -81 -56 -243 -86
-360 -147 -569 -199 -908 -199 -1291 0 -287 8 -340 128 -865 67 -290 80 -388
81 -585 0 -173 -15 -308 -36 -321 -24 -14 -149 221 -329 616 -145 319 -186
396 -234 449 -56 60 -56 59 -126 268 -108 317 -132 444 -131 688 0 233 18 342
145 900 89 388 105 593 78 989 -16 241 -15 907 4 1366 25 640 29 1292 10 1710
-31 684 -70 1157 -137 1645 -20 145 -94 607 -106 652 -12 53 -623 382 -1029
556 -211 90 -302 115 -554 151 -312 46 -473 90 -628 173 -100 55 -144 60 -178
20 -13 -15 -28 -44 -33 -65 -38 -143 -39 -680 -2 -958 54 -401 154 -736 319
-1067 77 -157 90 -176 161 -247 89 -89 200 -150 317 -175 173 -37 287 -1 430
134 105 99 171 133 274 139 61 3 91 0 141 -17 115 -38 249 -140 349 -266 l51
-64 -48 -93 c-97 -188 -323 -507 -518 -728 -246 -281 -531 -494 -730 -545 -75
-19 -187 -19 -251 0 -74 22 -154 84 -219 170 -95 126 -299 438 -429 655 -316
526 -520 947 -722 1488 -169 454 -246 695 -295 927 -34 163 -33 360 4 509 48
194 132 367 343 706 181 291 259 444 312 610 48 150 65 255 53 331 -21 134
-41 345 -61 629 -25 362 -34 443 -67 590 -32 147 -62 230 -130 362 -70 136
-184 287 -330 438 -240 249 -479 409 -745 498 -71 24 -98 39 -150 85 -113 102
-274 169 -478 201 -58 9 -132 21 -165 26 -53 9 -85 27 -85 50 0 4 13 26 29 50
40 59 162 155 315 246 197 119 310 165 531 217 404 97 438 94 707 -56 84 -47
218 -117 298 -155 186 -88 318 -167 616 -368 274 -184 290 -193 394 -224 41
-12 105 -35 142 -52 37 -17 74 -28 83 -24 8 3 28 26 43 51 15 25 47 76 71 113
68 104 61 138 -69 322 -116 163 -115 160 -114 345 0 250 42 434 144 640 72
145 141 232 239 302 60 43 98 61 210 97 153 49 328 90 476 111 148 21 425 14
530 -14z"/>
</g>
</svg>
